<svg xmlns="http://www.w3.org/2000/svg" version="1.1" xmlns:xlink="http://www.w3.org/1999/xlink" viewBox="0 0 8.97231717607999 5.944666525909335"><g transform="matrix(1,0,0,1,4.486158588039995,4.868143313845904)"><g transform="matrix(1,0,0,1,0,0)"><path d=" M -1.7478166754649165 -2.535585826924917 Q -1.7534850972285514 -2.539693015100488 -1.7520302660356901 -2.54851817607354 Q -1.750575434842829 -2.557343337046592 -1.7430301586008574 -2.572869727690664 Q -1.7258156748148825 -2.608558122835058 -1.7292023548313498 -2.632005519246303 Q -1.7325890348478168 -2.655452915657548 -1.7617409182036534 -2.6765755977033416 L -2.103465773097073 -2.9241803705734775 Q -2.1423349509048553 -2.952343946634535 -2.168294029870318 -2.955716811776349 Q -2.194253108835781 -2.959089676918163 -2.220234438107547 -2.9334582405699585 Q -2.2444555438754974 -2.91025612783474 -2.255792387402767 -2.918470504185882 Q -2.264699907317051 -2.924924657033208 -2.2476844134468283 -2.9484081186254096 Q -2.2224545432254637 -2.9832284237448814 -2.214017133504598 -2.99316875156655 L -2.1893740044511727 -3.02717928214836 Q -2.180572886932092 -3.0393259002132917 -2.16964783811098 -3.056108132134473 Q -2.1587227892898677 -3.0728903640556546 -2.1536651521481427 -3.0815748506002145 Q -2.1408392053947227 -3.1043892120832464 -2.1291043820359485 -3.1205847028364886 Q -2.061629147722997 -3.2137087746676336 -1.9826797165962746 -3.241713012289232 Q -1.9037302854695524 -3.2697172499108307 -1.8365189988435955 -3.2210177329719176 Q -1.7855032029708813 -3.1840530393917787 -1.7581749728957798 -3.133996393070213 Q -1.7308467428206784 -3.0839397467486473 -1.7361839356717195 -3.0254438975585485 Q -1.7415211285227603 -2.966948048368449 -1.7849399749502248 -2.9070247325814518 Q -1.796674798308999 -2.890829241828209 -1.8088677101342057 -2.8842275071150647 Q -1.8210606219594125 -2.8776257724019203 -1.8267290437230472 -2.8817329605774913 Q -1.829968141873696 -2.884079925249246 -1.8307899381383437 -2.8914673910460813 Q -1.8316117344029914 -2.8988548568429167 -1.8286780285632978 -2.902903729531227 Q -1.8269178050594816 -2.9053330531442136 -1.8187737659225858 -2.9148684936970515 Q -1.8106297267856897 -2.9244039342498898 -1.8000683857627928 -2.938979875927808 Q -1.765450656854409 -2.9867565736498736 -1.7869406329937534 -3.0406099015463965 Q -1.8084306091330977 -3.0944632294429195 -1.8813103175226897 -3.1472699345574036 Q -1.9436629569226738 -3.192449004488684 -2.0027506615703703 -3.1790739097426055 Q -2.061838366218067 -3.165698814996527 -2.106430694981409 -3.1041559501342046 Q -2.143982129729486 -3.0523303797238284 -2.1099715991476766 -3.027687250670403 L -1.72370914468284 -2.747811713563638 Q -1.692937712251679 -2.725515549181967 -1.6668379588577245 -2.7257454899890172 Q -1.6407382054637696 -2.7259754307960673 -1.6139471016543412 -2.751020125976333 Q -1.6015431781863967 -2.7630260696127733 -1.5936101506922384 -2.767157301242315 Q -1.5856771231980802 -2.7712885328718575 -1.5800087014344455 -2.7671813446962865 Q -1.5711011815201619 -2.760727191848961 -1.5881166753903846 -2.737243730256759 Q -1.6068923927644232 -2.7113309450515706 -1.6253867612814783 -2.69262377174411 Q -1.6383774259173614 -2.679808053570008 -1.651285731612013 -2.661993013741441 Q -1.6618470726349097 -2.6474170720635226 -1.6714871224352827 -2.631556131364865 Q -1.6811271722356558 -2.615695190666208 -1.6858211015791653 -2.609216994364911 Q -1.7060516501460652 -2.5744790481866704 -1.7218936616804104 -2.552615135669793 Q -1.738909155550633 -2.529131674077591 -1.7478166754649165 -2.535585826924917 M -1.406308263356548 -2.9778806332950145 Q -1.4109180377768245 -2.9831484582535874 -1.4088016536708 -2.988322520324704 Q -1.4066852695647751 -2.9934965823958204 -1.3995363228818694 -3.00506777772409 Q -1.376866411647115 -3.0368651852380424 -1.3959640485311182 -3.0586890314949873 L -1.5375499771539 -3.22048651236544 Q -1.5573061532408 -3.243062905045038 -1.5762620462982675 -3.2510581610380536 Q -1.595217939355735 -3.259053417031069 -1.6158192030912435 -3.2476697474777123 Q -1.6194879279847534 -3.2457881370887787 -1.6243797240642999 -3.246822705170702 Q -1.6292715201438461 -3.247857273252625 -1.6319056769554328 -3.250867458943238 Q -1.6345398337670196 -3.2538776446338513 -1.634587081709198 -3.258487174721828 Q -1.6346343296513766 -3.263096704809804 -1.6330352295863133 -3.2658248688411473 Q -1.6114943823178391 -3.3019495404515062 -1.590801554685576 -3.3678950246379267 Q -1.5871333184566667 -3.3804067808283627 -1.5841231327660537 -3.3830409376399495 Q -1.5803604006527874 -3.386333633654433 -1.5757506262325107 -3.38106580869586 Q -1.557970067754301 -3.3607470552842216 -1.528617825283221 -3.322649209388175 Q -1.5273007468774278 -3.321144116542868 -1.5257956540321211 -3.3224611949486618 Q -1.5267381695526894 -3.3615010677006762 -1.5159214753054746 -3.3962141650208846 Q -1.5051047810582596 -3.4309272623410934 -1.4840334812239682 -3.4493663600222 Q -1.4682300063482496 -3.4631956832830295 -1.4521437768163605 -3.465313044718255 Q -1.4360575472844714 -3.467430406153481 -1.4268379984439181 -3.456894756236335 Q -1.4163013711975716 -3.4448540134738828 -1.4138544958285977 -3.4230764378299154 Q -1.4114076204596235 -3.401298862185948 -1.4219432703767694 -3.3920793133453953 Q -1.4294687346033021 -3.385493921316429 -1.4489414230371307 -3.380413133468168 Q -1.4518576015079874 -3.3791900622821314 -1.4623934957574332 -3.3752855863423292 Q -1.4729293900068792 -3.3713811104025275 -1.4789497613881053 -3.3661127967793543 Q -1.5007736076450502 -3.347015159895351 -1.503312291243079 -3.3195459938070058 Q -1.5058509748411077 -3.2920768277186605 -1.4755581715078614 -3.25745969227661 L -1.342533252522736 -3.10544531490065 Q -1.3339722428850795 -3.0956622114061574 -1.3185915561659654 -3.0978265764512614 Q -1.3032108694468514 -3.0999909414963653 -1.2776238024120399 -3.111751128593349 Q -1.2659590885286138 -3.1166434133374956 -1.259844465595331 -3.1180077396854675 Q -1.253729842662048 -3.1193720660334394 -1.249778607444668 -3.1148567874975197 Q -1.242534676212805 -3.106578776848334 -1.2575856046658702 -3.0934079927904006 Q -1.2779043580775085 -3.0756274343121905 -1.2949309041392638 -3.0647142895222172 Q -1.3143090966887356 -3.050414441498004 -1.326349839451188 -3.0398778142516574 Q -1.3383905822136402 -3.029341187005311 -1.3536295251062187 -3.013348231696278 Q -1.363694650259981 -3.0005539651819717 -1.3840134036716192 -2.9827734067037617 Q -1.3990643321246847 -2.9696026226458283 -1.406308263356548 -2.9778806332950145 M -1.1532932384031442 -3.190124830820204 Q -1.1570819260801317 -3.1960109029983417 -1.1540808783731613 -3.201510331392319 Q -1.151079830666191 -3.2070097597862968 -1.142613144508093 -3.2160272553089055 Q -1.1265206396459164 -3.233521005257411 -1.1221712733310638 -3.245239922129683 Q -1.1178219070162112 -3.2569588390019555 -1.1270230056603239 -3.271253585720289 L -1.244472323646936 -3.4537218232425486 Q -1.280194236029961 -3.509219075207844 -1.3218219591378317 -3.490749298033919 Q -1.3307718747747403 -3.4861777545208135 -1.3372667679352903 -3.496268163969049 Q -1.343220419999128 -3.505517705963265 -1.3361938540096636 -3.511229743287697 Q -1.2924783146684413 -3.5560175945434342 -1.2749648261732276 -3.6101034311434907 Q -1.2711857067640384 -3.6208606731920407 -1.2669813694939402 -3.6235668786756032 Q -1.2619361647698226 -3.626814325255878 -1.2592299592862601 -3.62260998798578 Q -1.2532763072224227 -3.6133604459915643 -1.241185399973244 -3.5890333014428966 Q -1.2355313742667138 -3.5784016508979484 -1.2200432072586065 -3.5497203559005293 Q -1.2045550402504994 -3.52103906090311 -1.1937302183162495 -3.504221711822718 L -1.0681622838789497 -3.309140462490164 Q -1.0595024263315498 -3.2956865832258497 -1.0463433892906437 -3.294642675109174 Q -1.0331843522497377 -3.293598766992498 -1.011437821681031 -3.3004608663960555 Q -0.9997236889426577 -3.3044331571945467 -0.9934751946554123 -3.3048873808644066 Q -0.987226700368167 -3.3053416045342665 -0.9834380126911794 -3.299455532356129 Q -0.9774843606273419 -3.290205990361913 -0.9943017097077345 -3.2793811684276633 Q -1.0153233960582253 -3.2658501410098504 -1.0312418660666964 -3.259171644727797 Q -1.0508234322485532 -3.248946075508161 -1.0651181789668869 -3.2397449768640487 Q -1.0785720582312008 -3.2310851193166488 -1.0959886600262077 -3.2174960802809345 Q -1.1078188160003843 -3.2063136203714757 -1.1305222372589143 -3.1917001107602383 Q -1.1473395863393068 -3.1808752888259884 -1.1532932384031442 -3.190124830820204 M -1.3818557606511588 -3.6643881262834164 Q -1.4018963346367745 -3.6687327084643697 -1.413262397667737 -3.686390924998782 Q -1.425169701795412 -3.7048900089872134 -1.4208251196144586 -3.7249305829728296 Q -1.4164805374335052 -3.744971156958445 -1.398822320899093 -3.756337219989408 Q -1.3803232369106613 -3.7682445241170828 -1.3602826629250453 -3.7638999419361294 Q -1.3402420889394295 -3.759555359755176 -1.3283347848117546 -3.741056275766744 Q -1.3169687217807922 -3.723398059232332 -1.3213133039617455 -3.703357485246716 Q -1.3256578861426989 -3.6833169112611 -1.3441569701311307 -3.671409607133425 Q -1.361815186665543 -3.6600435441024626 -1.3818557606511588 -3.6643881262834164 M -0.9489670528193681 -3.3321569028351745 Q -0.9515355034614417 -3.3386686661370177 -0.9478015477608656 -3.342828903489157 Q -0.9440675920602896 -3.3469891408412966 -0.9334420034380513 -3.355480128206201 Q -0.9157413211340026 -3.367836739633738 -0.9082604616333277 -3.378849765608971 Q -0.9007796021326528 -3.3898627915842043 -0.9073841894979847 -3.406607325788944 L -0.9862723163616708 -3.6066114843455575 Q -0.9980138050111497 -3.6363795451539835 -1.0107632341580284 -3.6496253768163864 Q -1.0235126633049074 -3.6628712084787893 -1.0471099861327409 -3.6600135249135564 Q -1.0575132696962628 -3.6591350654113843 -1.0611824848992248 -3.6684375844140176 Q -1.0652186216224833 -3.678670355316914 -1.0572132760404096 -3.682902900899843 Q -1.0313108392946164 -3.701719483231132 -1.0157134816825097 -3.7207713187206606 Q -1.0001161240704028 -3.739823154210189 -0.9829010835491847 -3.7670378998428937 Q -0.9782239278488225 -3.774257609986284 -0.9745029202477693 -3.7757252960674688 Q -0.9698516607464527 -3.77755990366895 -0.9672832101043792 -3.771048140367107 L -0.9614383619786854 -3.7507790074209844 Q -0.959433241716579 -3.742970070698582 -0.9561438961334359 -3.7319052523252574 Q -0.9528545505502927 -3.720840433951933 -0.9484514923067381 -3.7096774111487734 Q -0.9447822771037759 -3.70037489214614 -0.9421879302626569 -3.6992482313862056 Q -0.9211741935432487 -3.7440859707258225 -0.8909485745178668 -3.7737450663717196 Q -0.8607229554924849 -3.8034041620176167 -0.817001116180109 -3.820649473471539 Q -0.7723490249674697 -3.838261706445757 -0.7274389773970633 -3.812976579844851 Q -0.6825289298266568 -3.787691453243945 -0.6608805601291802 -3.7328065911284094 L -0.5827262763060865 -3.5346629363723228 Q -0.5761216889407547 -3.517918402167583 -0.5639690541060645 -3.515724440778982 Q -0.5518164192713743 -3.5135304793903805 -0.5287824268235077 -3.5150909895350537 Q -0.516151717939163 -3.5157730401775553 -0.509751107166678 -3.514535226888263 Q -0.503350496394193 -3.5132974135989703 -0.5007820457521195 -3.506785650297127 Q -0.4974797520694536 -3.498413383194757 -0.51608479007472 -3.491074952788833 Q -0.5412015913818295 -3.4811680717408353 -0.5571863863469313 -3.4780880831168854 Q -0.5765252673927901 -3.472610156511488 -0.5923395496972665 -3.466372490666452 Q -0.6072235801014796 -3.4605017463417127 -0.6269552788666801 -3.4505689690946695 Q -0.6407385447100047 -3.44190746906914 -0.6667855979173776 -3.4316336665008462 Q -0.6853906359226439 -3.4242952360949217 -0.6886929296053099 -3.4326675031972917 Q -0.6912613802473834 -3.439179266499135 -0.6874292201169718 -3.4444532165116857 Q -0.6835970599865604 -3.4497271665242364 -0.6739017232645854 -3.4578512323688444 Q -0.6560046321008659 -3.4724352691172045 -0.6486219770300264 -3.482334582432026 Q -0.641239321959187 -3.492233895746848 -0.6478439093245189 -3.5089784299515876 L -0.7248974285867238 -3.7043313290068847 Q -0.7406750539594611 -3.744332160718207 -0.7726392635233177 -3.758598880977533 Q -0.8046034730871744 -3.772865601236859 -0.8431107225182666 -3.7587520708049773 Q -0.9007863403345924 -3.736002936546612 -0.9316918226356464 -3.680813706041565 Q -0.9361984656753832 -3.6704363186770887 -0.9306946428709401 -3.6564825401731387 L -0.8422665564795524 -3.432291832209679 Q -0.8356619691142205 -3.415547298004939 -0.8226772868091025 -3.4126065454762227 Q -0.8096926045039843 -3.4096657929475063 -0.7883227069969736 -3.41271988537241 Q -0.7760589196329251 -3.414332187915175 -0.7696583088604401 -3.4130943746258824 Q -0.7632576980879551 -3.41185656133659 -0.7610561689661778 -3.40627504993501 Q -0.7570200322429195 -3.3960422790321134 -0.7756250702481858 -3.3887038486261893 Q -0.7998116196550321 -3.3791638890984874 -0.8167266665203972 -3.375716978954242 Q -0.8379260513667826 -3.369505209308252 -0.8528100817709957 -3.3636344649835124 Q -0.8676941121752088 -3.357763720658773 -0.8874258109404094 -3.3478309434117297 Q -0.9012090767837339 -3.3391694433862003 -0.9263258780908434 -3.3292625623382026 Q -0.9449309160961098 -3.321924131932278 -0.9489670528193681 -3.3321569028351745 M -0.3647223671690371 -3.5334158598912104 Q -0.396287246881424 -3.5591628668773154 -0.4056399419370045 -3.616403823326324 L -0.4430507221593263 -3.8453676491223594 Q -0.4445020024265715 -3.854249866502378 -0.4514006972901111 -3.856162458769374 Q -0.4582993921536508 -3.8580750510363693 -0.4770507399559123 -3.855011237138852 L -0.482972218209258 -3.854043716960688 Q -0.48790678342037946 -3.853237450145552 -0.49232849924632793 -3.8585945416283023 Q -0.49675021507227646 -3.8639516331110526 -0.49804024197649444 -3.871846937448847 Q -0.498362748702549 -3.8738207635332955 -0.4964598528675836 -3.8776780925886487 Q -0.49455695703261826 -3.881535421644002 -0.4929056376742242 -3.883831754454505 Q -0.44573996118914805 -3.9300421316624994 -0.41797064595844236 -3.9771363471418733 Q -0.41482926060468145 -3.982715925805104 -0.41144599520637964 -3.986815134904998 Q -0.4080627298080779 -3.9909143440048918 -0.40312816459695644 -3.991720610820028 Q -0.3893113820058164 -3.9939781579024096 -0.3885245080547409 -3.982960861074915 L -0.38620267192963614 -3.9377435073596856 L -0.38555765847752715 -3.933795855190789 Q -0.38410637821028193 -3.92491363781077 -0.3777011398678544 -3.922920418862261 Q -0.3712959015254269 -3.920927199913751 -0.3594529450187355 -3.9228622402700783 L -0.24694485820516646 -3.9412451236551846 Q -0.24299720603626931 -3.9418901371072934 -0.23898832004991932 -3.9359589624219176 Q -0.23497943406356936 -3.9300277877365413 -0.23352815379632413 -3.921145570356523 Q -0.23207687352907888 -3.9122633529765043 -0.23366695907002008 -3.9033908320285158 Q -0.23525704461096136 -3.8945183110805277 -0.2392046967798585 -3.893873297628419 L -0.3369090879600632 -3.8779092146887213 Q -0.363555740100119 -3.8735553738869855 -0.36932566142246787 -3.868559574858411 Q -0.37509558274481675 -3.863563775829837 -0.37187051548427175 -3.843825514985351 L -0.3401036029679037 -3.649403645667166 Q -0.33349221508378646 -3.60894021093597 -0.3130864926978605 -3.589475974657387 Q -0.2926807703119344 -3.5700117383788035 -0.26109955296075715 -3.5751718459956754 Q -0.23346598777847707 -3.5796869401604385 -0.2178269360338853 -3.586295272819285 Q -0.20218788428929352 -3.5929036054781323 -0.19097054837065025 -3.604869029619729 L -0.18734540292780755 -3.607487869156287 Q -0.18043701163223752 -3.6086166426974775 -0.17817946454985606 -3.5947998601063373 Q -0.17721194437169252 -3.5888783818529917 -0.1924769520048074 -3.5706786691640247 Q -0.20774195963792225 -3.5524789564750576 -0.23196011490053894 -3.5363627858481443 Q -0.25617827016315564 -3.5202466152212306 -0.28381183534543575 -3.5157315210564675 Q -0.3331574874566502 -3.507668852905105 -0.3647223671690371 -3.5334158598912104 M 0.05413411241482555 -3.5840750644959307 Q -0.017276990653758928 -3.633823977635094 -0.05415536564960298 -3.7134181699965083 Q -0.09103374064544702 -3.7930123623579233 -0.0803592164565535 -3.8884170505726057 Q -0.07012946410886388 -3.979846543445009 -0.021482073862001683 -4.054902731878539 Q 0.0271653163848605 -4.129958920312069 0.10908068529831746 -4.16959630589402 Q 0.19099605421177437 -4.20923369147597 0.2973325296177223 -4.197336044723766 Q 0.38478682714784773 -4.18755106421728 0.4561979302164322 -4.137802151078117 Q 0.5276090332850166 -4.088053237938954 0.5644874082808607 -4.008459045577539 Q 0.6013657832767046 -3.9288648532161243 0.5906912590878112 -3.833460165001442 Q 0.5804615067401215 -3.7420306721290384 0.5318141164932594 -3.6669744836955087 Q 0.4831667262463971 -3.591918295261979 0.40125135733294026 -3.5522809096800283 Q 0.3193359884194833 -3.5126435240980776 0.21299951301353534 -3.5245411708502816 Q 0.12554521548341 -3.534326151356767 0.05413411241482555 -3.5840750644959307 M 0.4100217255824389 -3.6126802527291724 Q 0.47638376762196344 -3.6751888871435026 0.4898381158183812 -3.795438546247425 Q 0.5004014470469738 -3.8898494356265374 0.4800319457983292 -3.9686027429785558 Q 0.45966244454968463 -4.047356050330574 0.40846089707339517 -4.097862500770427 Q 0.3572593495971058 -4.148368951210279 0.2767616439159677 -4.157375580994659 Q 0.16644997316774132 -4.169717999588066 0.10019912408851786 -4.108203164009305 Q 0.033948275009294315 -4.0466883284305455 0.020605119773177444 -3.927432468162192 Q 0.010041788544584873 -3.8330215787830797 0.029803197415143673 -3.753330069075642 Q 0.049564606285702445 -3.6736385593682046 0.10071055728184139 -3.6226352095105674 Q 0.15185650827798033 -3.57163185965293 0.23235421395911846 -3.5626252298685515 Q 0.34365968354291443 -3.550171618314842 0.4100217255824389 -3.6126802527291724 M 0.6236221552538503 -3.4725616651056663 Q 0.626598186218036 -3.478897534398842 0.6321866753432279 -3.4790346084577006 Q 0.6377751644684198 -3.4791716825165597 0.6512423679924239 -3.4772652646077438 Q 0.672375712274941 -3.472862792638884 0.6855206829115591 -3.474974603937852 Q 0.6986656535481771 -3.47708641523682 0.7063183045989402 -3.4933786505621294 L 0.7977249699274991 -3.687980350281101 Q 0.8113296829066334 -3.7169443241927618 0.8122213173836227 -3.7353074662975176 Q 0.8131129518606119 -3.753670608402273 0.7948459792951934 -3.7688797409644623 Q 0.7870701792895932 -3.77584658632466 0.7913216520955726 -3.784897828172054 Q 0.7959982721821501 -3.7948541942041873 0.8045695371254027 -3.7919329928635452 Q 0.8360295650971077 -3.785994420642924 0.8605915024361803 -3.7877152443269413 Q 0.8851534397752528 -3.789436068010958 0.9167644669098384 -3.79557959822546 Q 0.925226072606004 -3.7971291881849716 0.9288465693449616 -3.79542859906258 Q 0.9333721902686586 -3.7933028626595897 0.930396159304473 -3.786966993366414 L 0.9196578180424372 -3.7688096800480824 Q 0.9153515156129142 -3.7619938338507652 0.9095571977012984 -3.75201005300686 Q 0.9037628797896826 -3.742026272162955 0.8986611124225072 -3.731164781946082 Q 0.8944096396165278 -3.722113540098688 0.8953695934248107 -3.719452997168013 Q 0.9424090716157594 -3.7349219173476267 0.9847238449504623 -3.733275722452507 Q 1.0270386182851652 -3.731629527557387 1.0695794549679172 -3.7116476053692837 Q 1.1130254158354085 -3.691240535900582 1.1254360606155211 -3.6412182818915726 Q 1.1378467053956338 -3.591196027882563 1.112763015840355 -3.5377937009829385 L 1.022206645072992 -3.3450022496334455 Q 1.0145539940222288 -3.328710014308136 1.0212943406381059 -3.3183626606610517 Q 1.028034687253983 -3.308015307013967 1.0449713883540643 -3.2923261975476366 Q 1.0541322894485452 -3.2836039334415035 1.0576224569825192 -3.2780976887516267 Q 1.0611126245164932 -3.2725914440617503 1.0581365935523075 -3.266255574768574 Q 1.054310268026926 -3.2581094571059195 1.036207784332138 -3.2666124027178784 Q 1.0117694313441739 -3.278091379294023 0.9985628862301374 -3.2876091083378087 Q 0.9813106970965453 -3.2979223023192463 0.9659235859559754 -3.3051498060894113 Q 0.9514415990001449 -3.3119521625789785 0.9306785723746821 -3.319495154382655 Q 0.9149211435770579 -3.3235821383180038 0.8895776664043545 -3.3354862621747463 Q 0.8714751827095665 -3.3439892077867053 0.875301508234948 -3.35213532544936 Q 0.8782775391991336 -3.3584711947425356 0.8847437376972932 -3.359300819345835 Q 0.8912099361954527 -3.360130443949134 0.9037720155347173 -3.3586491733209165 Q 0.9266607785631699 -3.355631802440937 0.9389280398268203 -3.357051063195465 Q 0.9511953010904707 -3.3584703239499927 0.9588479521412338 -3.3747625592753017 L 1.0481288810668028 -3.5648386380705768 Q 1.0664102141325147 -3.603758978014371 1.0548633536213479 -3.636803191007506 Q 1.0433164931101813 -3.6698474040006404 1.0066315488164637 -3.688183566689896 Q 0.9505138493626206 -3.7145426980869685 0.889156873086472 -3.699169947446692 Q 0.8785147013637731 -3.6953301322135603 0.872137492154804 -3.6817532694424693 L 0.7696769975306984 -3.463618340920273 Q 0.7620243464799353 -3.4473261055949638 0.7687921079075841 -3.435861054122841 Q 0.775559869335233 -3.4243960026507176 0.7924417408117708 -3.410942288834464 Q 0.8020277891868497 -3.4031251489130705 0.8055179567208236 -3.3976189042231937 Q 0.8090081242547975 -3.392112659533317 0.8064572405712098 -3.3866819144248805 Q 0.8017806204846324 -3.376725548392747 0.7836781367898443 -3.385228494004706 Q 0.7601449079866198 -3.396282323300253 0.7460332386878439 -3.406225199624636 Q 0.7269708011847729 -3.4173886881672697 0.7124888142289424 -3.424191044656837 Q 0.6980068272731119 -3.430993401146404 0.6772438006476492 -3.43853639295008 Q 0.6614863718500249 -3.4426233768854293 0.637048018862061 -3.4541023534615736 Q 0.6189455351672729 -3.4626052990735325 0.6236221552538503 -3.4725616651056663 M 1.090899298535086 -3.253615221030428 Q 1.0874219716533837 -3.2616251022878373 1.0915065675332511 -3.266020108146556 Q 1.1003565252729635 -3.2755426208404463 1.131336717295695 -3.2604023532657074 Q 1.158706139432636 -3.2472526486344266 1.1853212986077861 -3.2450428291663673 Q 1.2119364577829366 -3.242833009698308 1.246750781728959 -3.2582590541744985 Q 1.368626783038275 -3.3115435763629497 1.4652967866159718 -3.3575371673109076 Q 1.561966790193669 -3.4035307582588654 1.703688474915294 -3.4752312748515948 Q 1.7328497310355926 -3.4904503793418846 1.7534279154243548 -3.508185607766185 Q 1.7563061843336918 -3.5068758108027045 1.7671126264928252 -3.5016107554505447 Q 1.7779190686519586 -3.496345700098385 1.7900094402763347 -3.4946655471337777 Q 1.7999540439678268 -3.4936144251526735 1.8114194901216005 -3.49934098996021 Q 1.822884936275374 -3.505067554767747 1.8270730021481918 -3.5066360267136036 Q 1.8284862691046229 -3.506687761710079 1.8292446375793134 -3.5053003622518855 Q 1.830003006054004 -3.503912962793692 1.8300547410504793 -3.502499695837261 Q 1.8281159131034963 -3.49747565899504 1.8251300686883085 -3.4920595041663542 Q 1.822144224273121 -3.486643349337669 1.8202053963261378 -3.4816193124954475 Q 1.7157919952488214 -3.2605699024635104 1.5870615368266021 -2.969287446633426 Q 1.5635369264804277 -2.916065339308925 1.5671095123292806 -2.8861239527285982 Q 1.5706820981781333 -2.8561825661482714 1.5929675374505778 -2.827279985010349 Q 1.6026452551338939 -2.814190226401344 1.604446534563889 -2.8036424592245863 Q 1.6062478139938843 -2.7930946920478292 1.601482452134039 -2.7879671852126577 Q 1.5946747923342603 -2.7806421754481265 1.57343226401712 -2.800384388867485 L 1.535238743248608 -2.838610753739197 Q 1.4969417524871458 -2.8796636525237704 1.4756992241700058 -2.899405865943129 L 1.3981058556624515 -2.9701537928643535 Q 1.3768633273453115 -2.989896006283712 1.3850325191050459 -2.998686018001149 Q 1.3891171149849133 -3.003081023859868 1.3998200871510962 -3.00064250242057 Q 1.410523059317279 -2.9982039809812724 1.4221396049475783 -2.990138259214488 Q 1.4736298243109966 -2.9559365442003687 1.4974566336102224 -2.9815740783762275 Q 1.5192411449695147 -3.005014109622727 1.5791731842849681 -3.126789109780768 Q 1.582473544191907 -3.1332781485758954 1.5798063207813706 -3.13848736341868 Q 1.5771390973708344 -3.1436965782614648 1.566884083700491 -3.153227301981155 L 1.4284413991508536 -3.2818920721969747 Q 1.4203838884098694 -3.2893804979767314 1.403735094911549 -3.2802800762804427 Q 1.3738930728112726 -3.2643284708137 1.3278461101956152 -3.236816160226033 Q 1.2817991475799577 -3.209303849638366 1.2756722537601568 -3.2027113408502883 Q 1.2613761681806213 -3.187328820344773 1.2632509445924294 -3.1651086670283415 Q 1.2651257210042373 -3.14288851371191 1.2793536495356976 -3.121474358353744 Q 1.2891348372119642 -3.1055580658318767 1.291905530615451 -3.0975223170762303 Q 1.2946762240189378 -3.089486568320584 1.2899108621590927 -3.084359061485412 Q 1.282422436379336 -3.076301550744428 1.2611799080621957 -3.0960437641637863 Q 1.2479948904860398 -3.108297551803388 1.2398856447485804 -3.117199244539576 L 1.1958838511649188 -3.1594584702946795 Q 1.183431334565216 -3.1710314919543037 1.1673939155779605 -3.1838884430791707 Q 1.151356496590705 -3.1967453942040374 1.1440314868261738 -3.2035530540038164 Q 1.1214791615455533 -3.2204169985138376 1.1038991381106786 -3.236755382033307 Q 1.0943766254167884 -3.2456053397730193 1.090899298535086 -3.253615221030428 M 1.5842218542045892 -3.1821651960639525 Q 1.5886168600633077 -3.1780806001840856 1.592227629949098 -3.176090037240627 Q 1.5958383998348884 -3.1740994742971687 1.5978806977748221 -3.176296977226528 L 1.6032233556216946 -3.1849835189510145 L 1.7121951785729554 -3.4168135036438474 Q 1.7200539603538387 -3.434083117099871 1.7178564574244795 -3.4361254150398044 Q 1.7163914554715731 -3.43748694699976 1.7004234279532304 -3.4291190262799245 L 1.466978174001417 -3.3116059912269007 L 1.4600670442086876 -3.3071075153752316 Q 1.456663214308798 -3.303445010492966 1.4592787027228593 -3.2996490626066124 Q 1.4618941911369203 -3.2958531147202588 1.4706842028543576 -3.2876839229605244 L 1.5842218542045892 -3.1821651960639525 M 1.6517211963163883 -2.684561693278435 Q 1.6629614075675878 -2.7237140578434063 1.7118970933365298 -2.7548476194501896 L 1.9076398364122973 -2.879381865877323 Q 1.9152333048936847 -2.8842129357818242 1.9142753550120077 -2.8913074640976597 Q 1.9133174051303308 -2.8984019924134956 1.9031184797763845 -2.9144326480964247 L 1.8998977665067174 -2.91949496041735 Q 1.8972138387819946 -2.9237135540181205 1.9003974016956136 -2.9298872828083273 Q 1.9035809646092328 -2.936061011598534 1.9103307143704662 -2.9403552959580908 Q 1.9120181518107746 -2.94142886704798 1.9163131311936754 -2.9411983196549003 Q 1.9206081105765764 -2.940967772261821 1.9233691191067739 -2.9403539059114014 Q 1.9844168498996375 -2.9151909457309686 2.0386405302191717 -2.9082057834132433 Q 2.045006265999721 -2.9075148362573495 2.0501064237000386 -2.9060187107840387 Q 2.0552065814003564 -2.904522585310728 2.057890509125079 -2.900303991709957 Q 2.0654055067543027 -2.888491929627799 2.0555878152876623 -2.883431007353563 L 2.0149365451560017 -2.8634942514318293 L 2.011561670275385 -2.8613471092520513 Q 2.0039682017939975 -2.8565160393475506 2.0046577589032024 -2.849843370391792 Q 2.005347316012407 -2.843170701436033 2.0117887425517416 -2.833046076794183 L 2.0729822946754193 -2.7368621426966078 Q 2.0751294368551974 -2.733487267815991 2.071255621809029 -2.7274670056133887 Q 2.06738180676286 -2.721446743410787 2.059788338281473 -2.716615673506286 Q 2.0521948698000854 -2.711784603601785 2.0434129040439415 -2.709753082630219 Q 2.034630938287797 -2.707721561658653 2.032483796108019 -2.7110964365392696 L 1.9793420271585094 -2.7946245898345325 Q 1.9648488174450067 -2.8174049952786953 1.9579848365222507 -2.820742024779919 Q 1.9511208555994943 -2.824079054281143 1.934246481196411 -2.813343343382252 L 1.7680338933260393 -2.7075965910281776 Q 1.7334414257997184 -2.685588383685451 1.7235831088603069 -2.659167490681578 Q 1.713724791920895 -2.632746597677705 1.7309019293591206 -2.605747598632772 Q 1.7459319246175677 -2.582123474468455 1.7581637609897693 -2.570349257765689 Q 1.770395597361971 -2.5585750410629235 1.7858109966477917 -2.552974553150365 L 1.7896455762678782 -2.550673249359637 Q 1.79340307508249 -2.544767218318558 1.7815910130003316 -2.5372522206893344 Q 1.7765287006794066 -2.5340315074196673 1.753788920708015 -2.540898268435802 Q 1.7310491407366237 -2.5477650294519365 1.7066996991537433 -2.5636821489966874 Q 1.6823502575708629 -2.5795992685414384 1.6673202623124157 -2.6032233927057553 Q 1.6404809850651887 -2.645409328713464 1.6517211963163883 -2.684561693278435" fill="#173054" fill-rule="nonzero"></path></g><g transform="matrix(1,0,0,1,0,0)"><path d=" M -3.5871353759765627 0.052999999999999936 Q -3.549135375976563 0.08499999999999991 -3.549135375976563 0.14099999999999993 Q -3.549135375976563 0.19699999999999993 -3.5871353759765627 0.22874999999999993 Q -3.625135375976563 0.26049999999999995 -3.6921353759765627 0.26049999999999995 L -3.786135375976563 0.26049999999999995 L -3.786135375976563 0.37099999999999994 L -3.823135375976563 0.37099999999999994 L -3.823135375976563 0.020999999999999908 L -3.6921353759765627 0.020999999999999908 Q -3.625135375976563 0.020999999999999908 -3.5871353759765627 0.052999999999999936 M -3.6136353759765627 0.20524999999999993 Q -3.586135375976563 0.18249999999999994 -3.586135375976563 0.14099999999999993 Q -3.586135375976563 0.09849999999999992 -3.6136353759765627 0.07574999999999993 Q -3.641135375976563 0.052999999999999936 -3.693135375976563 0.052999999999999936 L -3.786135375976563 0.052999999999999936 L -3.786135375976563 0.22799999999999992 L -3.693135375976563 0.22799999999999992 Q -3.641135375976563 0.22799999999999992 -3.6136353759765627 0.20524999999999993 M -3.4111317138671877 0.11949999999999994 Q -3.3863817138671877 0.10599999999999993 -3.349881713867188 0.10599999999999993 L -3.349881713867188 0.14049999999999993 L -3.3583817138671876 0.13999999999999993 Q -3.3998817138671877 0.13999999999999993 -3.423381713867188 0.16549999999999992 Q -3.446881713867188 0.19099999999999995 -3.446881713867188 0.23699999999999993 L -3.446881713867188 0.37099999999999994 L -3.4823817138671878 0.37099999999999994 L -3.4823817138671878 0.10799999999999993 L -3.448381713867188 0.10799999999999993 L -3.448381713867188 0.15949999999999995 Q -3.4358817138671878 0.13299999999999992 -3.4111317138671877 0.11949999999999994 M -3.2851290283203127 0.10799999999999993 L -3.249629028320313 0.10799999999999993 L -3.249629028320313 0.37099999999999994 L -3.2851290283203127 0.37099999999999994 L -3.2851290283203127 0.10799999999999993 M -3.285629028320313 0.04299999999999993 Q -3.2931290283203127 0.03549999999999992 -3.2931290283203127 0.02499999999999991 Q -3.2931290283203127 0.014999999999999958 -3.285629028320313 0.007499999999999951 Q -3.2781290283203126 -5.551115123125783e-17 -3.267129028320313 -5.551115123125783e-17 Q -3.256129028320313 -5.551115123125783e-17 -3.248629028320313 0.007249999999999923 Q -3.2411290283203127 0.014499999999999957 -3.2411290283203127 0.02449999999999991 Q -3.2411290283203127 0.03549999999999992 -3.248629028320313 0.04299999999999993 Q -3.256129028320313 0.050499999999999934 -3.267129028320313 0.050499999999999934 Q -3.2781290283203126 0.050499999999999934 -3.285629028320313 0.04299999999999993 M -2.937138061523438 0.13474999999999993 Q -2.9078880615234377 0.16349999999999992 -2.9078880615234377 0.21849999999999994 L -2.9078880615234377 0.37099999999999994 L -2.9433880615234376 0.37099999999999994 L -2.9433880615234376 0.22199999999999995 Q -2.9433880615234376 0.18099999999999994 -2.9638880615234378 0.15949999999999995 Q -2.984388061523438 0.13799999999999993 -3.0223880615234378 0.13799999999999993 Q -3.0648880615234377 0.13799999999999993 -3.089638061523438 0.16324999999999992 Q -3.114388061523438 0.18849999999999995 -3.114388061523438 0.23299999999999993 L -3.114388061523438 0.37099999999999994 L -3.1498880615234377 0.37099999999999994 L -3.1498880615234377 0.10799999999999993 L -3.115888061523438 0.10799999999999993 L -3.115888061523438 0.15649999999999994 Q -3.101388061523438 0.13249999999999992 -3.075638061523438 0.11924999999999991 Q -3.0498880615234376 0.10599999999999993 -3.015888061523438 0.10599999999999993 Q -2.9663880615234377 0.10599999999999993 -2.937138061523438 0.13474999999999993 M -2.6721370849609376 0.3549999999999999 Q -2.682137084960938 0.36399999999999993 -2.6968870849609377 0.36874999999999997 Q -2.711637084960938 0.37349999999999994 -2.727637084960938 0.37349999999999994 Q -2.764637084960938 0.37349999999999994 -2.784637084960938 0.3534999999999999 Q -2.804637084960938 0.33349999999999996 -2.804637084960938 0.29699999999999993 L -2.804637084960938 0.13799999999999993 L -2.8516370849609376 0.13799999999999993 L -2.8516370849609376 0.10799999999999993 L -2.804637084960938 0.10799999999999993 L -2.804637084960938 0.050499999999999934 L -2.7691370849609376 0.050499999999999934 L -2.7691370849609376 0.10799999999999993 L -2.689137084960938 0.10799999999999993 L -2.689137084960938 0.13799999999999993 L -2.7691370849609376 0.13799999999999993 L -2.7691370849609376 0.29499999999999993 Q -2.7691370849609376 0.31849999999999995 -2.757387084960938 0.33074999999999993 Q -2.7456370849609377 0.3429999999999999 -2.723637084960938 0.3429999999999999 Q -2.712637084960938 0.3429999999999999 -2.7023870849609377 0.3394999999999999 Q -2.6921370849609376 0.33599999999999997 -2.684637084960938 0.32949999999999996 L -2.6721370849609376 0.3549999999999999 M -2.408872192382813 0.35074999999999995 Q -2.4511221923828126 0.32749999999999996 -2.4748721923828128 0.2869999999999999 Q -2.498622192382813 0.24649999999999994 -2.498622192382813 0.19599999999999992 Q -2.498622192382813 0.14549999999999993 -2.4748721923828128 0.10499999999999993 Q -2.4511221923828126 0.06449999999999995 -2.408872192382813 0.04124999999999995 Q -2.366622192382813 0.01799999999999996 -2.3146221923828127 0.01799999999999996 Q -2.2626221923828127 0.01799999999999996 -2.2208721923828127 0.040999999999999925 Q -2.179122192382813 0.06399999999999995 -2.1551221923828128 0.10474999999999995 Q -2.1311221923828128 0.14549999999999993 -2.1311221923828128 0.19599999999999992 Q -2.1311221923828128 0.24649999999999994 -2.1551221923828128 0.28724999999999995 Q -2.179122192382813 0.32799999999999996 -2.2208721923828127 0.3509999999999999 Q -2.2626221923828127 0.37399999999999994 -2.3146221923828127 0.37399999999999994 Q -2.366622192382813 0.37399999999999994 -2.408872192382813 0.35074999999999995 M -2.2396221923828126 0.3222499999999999 Q -2.2061221923828125 0.30349999999999994 -2.187122192382813 0.27024999999999993 Q -2.1681221923828127 0.23699999999999993 -2.1681221923828127 0.19599999999999992 Q -2.1681221923828127 0.15499999999999994 -2.187122192382813 0.12174999999999994 Q -2.2061221923828125 0.08849999999999991 -2.2396221923828126 0.06974999999999992 Q -2.2731221923828127 0.050999999999999934 -2.3146221923828127 0.050999999999999934 Q -2.356122192382813 0.050999999999999934 -2.389872192382813 0.06974999999999992 Q -2.4236221923828127 0.08849999999999991 -2.4428721923828127 0.12174999999999994 Q -2.4621221923828127 0.15499999999999994 -2.4621221923828127 0.19599999999999992 Q -2.4621221923828127 0.23699999999999993 -2.4428721923828127 0.27024999999999993 Q -2.4236221923828127 0.30349999999999994 -2.389872192382813 0.3222499999999999 Q -2.356122192382813 0.34099999999999997 -2.3146221923828127 0.34099999999999997 Q -2.2731221923828127 0.34099999999999997 -2.2396221923828126 0.3222499999999999 M -1.8421275634765628 0.13474999999999993 Q -1.8128775634765626 0.16349999999999992 -1.8128775634765626 0.21849999999999994 L -1.8128775634765626 0.37099999999999994 L -1.8483775634765627 0.37099999999999994 L -1.8483775634765627 0.22199999999999995 Q -1.8483775634765627 0.18099999999999994 -1.8688775634765626 0.15949999999999995 Q -1.8893775634765626 0.13799999999999993 -1.9273775634765626 0.13799999999999993 Q -1.9698775634765626 0.13799999999999993 -1.9946275634765627 0.16324999999999992 Q -2.0193775634765627 0.18849999999999995 -2.0193775634765627 0.23299999999999993 L -2.0193775634765627 0.37099999999999994 L -2.0548775634765626 0.37099999999999994 L -2.0548775634765626 0.10799999999999993 L -2.0208775634765628 0.10799999999999993 L -2.0208775634765628 0.15649999999999994 Q -2.006377563476563 0.13249999999999992 -1.9806275634765627 0.11924999999999991 Q -1.9548775634765627 0.10599999999999993 -1.9208775634765627 0.10599999999999993 Q -1.8713775634765626 0.10599999999999993 -1.8421275634765628 0.13474999999999993 M -1.3568646240234377 0.27749999999999997 L -1.5518646240234377 0.27749999999999997 L -1.5938646240234375 0.37099999999999994 L -1.6323646240234377 0.37099999999999994 L -1.4723646240234376 0.020999999999999908 L -1.4358646240234376 0.020999999999999908 L -1.2758646240234377 0.37099999999999994 L -1.3148646240234376 0.37099999999999994 L -1.3568646240234377 0.27749999999999997 M -1.3703646240234377 0.24749999999999994 L -1.4543646240234376 0.05949999999999994 L -1.5383646240234377 0.24749999999999994 L -1.3703646240234377 0.24749999999999994 M -1.0118746337890627 0.13474999999999993 Q -0.9826246337890626 0.16349999999999992 -0.9826246337890626 0.21849999999999994 L -0.9826246337890626 0.37099999999999994 L -1.0181246337890626 0.37099999999999994 L -1.0181246337890626 0.22199999999999995 Q -1.0181246337890626 0.18099999999999994 -1.0386246337890626 0.15949999999999995 Q -1.0591246337890625 0.13799999999999993 -1.0971246337890626 0.13799999999999993 Q -1.1396246337890625 0.13799999999999993 -1.1643746337890626 0.16324999999999992 Q -1.1891246337890626 0.18849999999999995 -1.1891246337890626 0.23299999999999993 L -1.1891246337890626 0.37099999999999994 L -1.2246246337890625 0.37099999999999994 L -1.2246246337890625 0.10799999999999993 L -1.1906246337890627 0.10799999999999993 L -1.1906246337890627 0.15649999999999994 Q -1.1761246337890625 0.13249999999999992 -1.1503746337890626 0.11924999999999991 Q -1.1246246337890626 0.10599999999999993 -1.0906246337890626 0.10599999999999993 Q -1.0411246337890625 0.10599999999999993 -1.0118746337890627 0.13474999999999993 M -0.6693785400390626 0.10799999999999993 L -0.8008785400390626 0.40249999999999997 Q -0.8168785400390626 0.43949999999999995 -0.8378785400390626 0.45499999999999996 Q -0.8588785400390626 0.4704999999999999 -0.8883785400390626 0.4704999999999999 Q -0.9073785400390626 0.4704999999999999 -0.9238785400390626 0.4644999999999999 Q -0.9403785400390625 0.45849999999999996 -0.9523785400390625 0.44649999999999995 L -0.9358785400390626 0.41999999999999993 Q -0.9158785400390625 0.43999999999999995 -0.8878785400390625 0.43999999999999995 Q -0.8698785400390625 0.43999999999999995 -0.8571285400390626 0.42999999999999994 Q -0.8443785400390625 0.41999999999999993 -0.8333785400390625 0.39599999999999996 L -0.8218785400390626 0.37049999999999994 L -0.9393785400390626 0.10799999999999993 L -0.9023785400390626 0.10799999999999993 L -0.8033785400390625 0.33149999999999996 L -0.7043785400390625 0.10799999999999993 L -0.6693785400390626 0.10799999999999993 M -0.47262512207031254 0.3549999999999999 Q -0.48262512207031255 0.36399999999999993 -0.49737512207031254 0.36874999999999997 Q -0.5121251220703126 0.37349999999999994 -0.5281251220703125 0.37349999999999994 Q -0.5651251220703125 0.37349999999999994 -0.5851251220703125 0.3534999999999999 Q -0.6051251220703125 0.33349999999999996 -0.6051251220703125 0.29699999999999993 L -0.6051251220703125 0.13799999999999993 L -0.6521251220703126 0.13799999999999993 L -0.6521251220703126 0.10799999999999993 L -0.6051251220703125 0.10799999999999993 L -0.6051251220703125 0.050499999999999934 L -0.5696251220703126 0.050499999999999934 L -0.5696251220703126 0.10799999999999993 L -0.4896251220703125 0.10799999999999993 L -0.4896251220703125 0.13799999999999993 L -0.5696251220703126 0.13799999999999993 L -0.5696251220703126 0.29499999999999993 Q -0.5696251220703126 0.31849999999999995 -0.5578751220703125 0.33074999999999993 Q -0.5461251220703125 0.3429999999999999 -0.5241251220703125 0.3429999999999999 Q -0.5131251220703126 0.3429999999999999 -0.5028751220703125 0.3394999999999999 Q -0.4926251220703125 0.33599999999999997 -0.48512512207031255 0.32949999999999996 L -0.47262512207031254 0.3549999999999999 M -0.4073721923828125 0.10799999999999993 L -0.3718721923828125 0.10799999999999993 L -0.3718721923828125 0.37099999999999994 L -0.4073721923828125 0.37099999999999994 L -0.4073721923828125 0.10799999999999993 M -0.4078721923828125 0.04299999999999993 Q -0.41537219238281253 0.03549999999999992 -0.41537219238281253 0.02499999999999991 Q -0.41537219238281253 0.014999999999999958 -0.4078721923828125 0.007499999999999951 Q -0.4003721923828125 -5.551115123125783e-17 -0.3893721923828125 -5.551115123125783e-17 Q -0.3783721923828125 -5.551115123125783e-17 -0.3708721923828125 0.007249999999999923 Q -0.3633721923828125 0.014499999999999957 -0.3633721923828125 0.02449999999999991 Q -0.3633721923828125 0.03549999999999992 -0.3708721923828125 0.04299999999999993 Q -0.3783721923828125 0.050499999999999934 -0.3893721923828125 0.050499999999999934 Q -0.4003721923828125 0.050499999999999934 -0.4078721923828125 0.04299999999999993 M 0.1336187744140625 0.13449999999999993 Q 0.1618687744140625 0.16299999999999992 0.1618687744140625 0.21849999999999994 L 0.1618687744140625 0.37099999999999994 L 0.12636877441406252 0.37099999999999994 L 0.12636877441406252 0.22199999999999995 Q 0.12636877441406252 0.18099999999999994 0.10661877441406253 0.15949999999999995 Q 0.08686877441406254 0.13799999999999993 0.05086877441406251 0.13799999999999993 Q 0.009868774414062531 0.13799999999999993 -0.01363122558593749 0.16324999999999992 Q -0.037131225585937455 0.18849999999999995 -0.037131225585937455 0.23299999999999993 L -0.037131225585937455 0.37099999999999994 L -0.07263122558593749 0.37099999999999994 L -0.07263122558593749 0.22199999999999995 Q -0.07263122558593749 0.18099999999999994 -0.09238122558593748 0.15949999999999995 Q -0.1121312255859375 0.13799999999999993 -0.14863122558593747 0.13799999999999993 Q -0.18913122558593748 0.13799999999999993 -0.21288122558593747 0.16324999999999992 Q -0.23663122558593747 0.18849999999999995 -0.23663122558593747 0.23299999999999993 L -0.23663122558593747 0.37099999999999994 L -0.2721312255859375 0.37099999999999994 L -0.2721312255859375 0.10799999999999993 L -0.23813122558593747 0.10799999999999993 L -0.23813122558593747 0.15599999999999994 Q -0.22413122558593748 0.13199999999999992 -0.1991312255859375 0.11899999999999994 Q -0.1741312255859375 0.10599999999999993 -0.1416312255859375 0.10599999999999993 Q -0.10863122558593749 0.10599999999999993 -0.08438122558593747 0.11999999999999994 Q -0.060131225585937476 0.13399999999999992 -0.048131225585937465 0.16149999999999995 Q -0.03363122558593745 0.13549999999999993 -0.006381225585937456 0.12074999999999991 Q 0.02086877441406254 0.10599999999999993 0.055868774414062516 0.10599999999999993 Q 0.1053687744140625 0.10599999999999993 0.1336187744140625 0.13449999999999993 M 0.48911291503906257 0.25049999999999994 L 0.26911291503906254 0.25049999999999994 Q 0.27211291503906254 0.2914999999999999 0.3006129150390625 0.3167499999999999 Q 0.32911291503906254 0.3419999999999999 0.3726129150390626 0.3419999999999999 Q 0.39711291503906254 0.3419999999999999 0.41761291503906256 0.33324999999999994 Q 0.4381129150390626 0.32449999999999996 0.45311291503906254 0.30749999999999994 L 0.47311291503906255 0.33049999999999996 Q 0.45561291503906254 0.3514999999999999 0.42936291503906254 0.36249999999999993 Q 0.40311291503906255 0.37349999999999994 0.3716129150390626 0.37349999999999994 Q 0.33111291503906254 0.37349999999999994 0.29986291503906254 0.35624999999999996 Q 0.26861291503906254 0.33899999999999997 0.2511129150390625 0.30849999999999994 Q 0.23361291503906254 0.2779999999999999 0.23361291503906254 0.23949999999999994 Q 0.23361291503906254 0.20099999999999993 0.25036291503906255 0.17049999999999993 Q 0.26711291503906254 0.13999999999999993 0.29636291503906254 0.12299999999999994 Q 0.32561291503906253 0.10599999999999993 0.3621129150390625 0.10599999999999993 Q 0.39861291503906254 0.10599999999999993 0.4276129150390625 0.12299999999999994 Q 0.45661291503906254 0.13999999999999993 0.47311291503906255 0.17024999999999993 Q 0.48961291503906257 0.20049999999999993 0.48961291503906257 0.23949999999999994 L 0.48911291503906257 0.25049999999999994 M 0.29836291503906254 0.16074999999999995 Q 0.27261291503906254 0.18499999999999994 0.26911291503906254 0.22399999999999995 L 0.45561291503906254 0.22399999999999995 Q 0.45211291503906254 0.18499999999999994 0.42636291503906254 0.16074999999999995 Q 0.40061291503906254 0.13649999999999993 0.3621129150390625 0.13649999999999993 Q 0.32411291503906253 0.13649999999999993 0.29836291503906254 0.16074999999999995 M 0.9216268310546876 0.27749999999999997 L 0.7266268310546876 0.27749999999999997 L 0.6846268310546876 0.37099999999999994 L 0.6461268310546876 0.37099999999999994 L 0.8061268310546876 0.020999999999999908 L 0.8426268310546876 0.020999999999999908 L 1.0026268310546875 0.37099999999999994 L 0.9636268310546876 0.37099999999999994 L 0.9216268310546876 0.27749999999999997 M 0.9081268310546876 0.24749999999999994 L 0.8241268310546876 0.05949999999999994 L 0.7401268310546876 0.24749999999999994 L 0.9081268310546876 0.24749999999999994 M 1.1898643798828126 0.3549999999999999 Q 1.1798643798828126 0.36399999999999993 1.1651143798828127 0.36874999999999997 Q 1.1503643798828127 0.37349999999999994 1.1343643798828127 0.37349999999999994 Q 1.0973643798828125 0.37349999999999994 1.0773643798828125 0.3534999999999999 Q 1.0573643798828127 0.33349999999999996 1.0573643798828127 0.29699999999999993 L 1.0573643798828127 0.13799999999999993 L 1.0103643798828126 0.13799999999999993 L 1.0103643798828126 0.10799999999999993 L 1.0573643798828127 0.10799999999999993 L 1.0573643798828127 0.050499999999999934 L 1.0928643798828126 0.050499999999999934 L 1.0928643798828126 0.10799999999999993 L 1.1728643798828127 0.10799999999999993 L 1.1728643798828127 0.13799999999999993 L 1.0928643798828126 0.13799999999999993 L 1.0928643798828126 0.29499999999999993 Q 1.0928643798828126 0.31849999999999995 1.1046143798828125 0.33074999999999993 Q 1.1163643798828127 0.3429999999999999 1.1383643798828127 0.3429999999999999 Q 1.1493643798828126 0.3429999999999999 1.1596143798828127 0.3394999999999999 Q 1.1698643798828126 0.33599999999999997 1.1773643798828126 0.32949999999999996 L 1.1898643798828126 0.3549999999999999 M 1.6138792724609377 0.27749999999999997 L 1.4188792724609376 0.27749999999999997 L 1.3768792724609378 0.37099999999999994 L 1.3383792724609376 0.37099999999999994 L 1.4983792724609377 0.020999999999999908 L 1.5348792724609377 0.020999999999999908 L 1.6948792724609376 0.37099999999999994 L 1.6558792724609377 0.37099999999999994 L 1.6138792724609377 0.27749999999999997 M 1.6003792724609376 0.24749999999999994 L 1.5163792724609377 0.05949999999999994 L 1.4323792724609377 0.24749999999999994 L 1.6003792724609376 0.24749999999999994 M 1.9588692626953126 0.13474999999999993 Q 1.9881192626953128 0.16349999999999992 1.9881192626953128 0.21849999999999994 L 1.9881192626953128 0.37099999999999994 L 1.9526192626953127 0.37099999999999994 L 1.9526192626953127 0.22199999999999995 Q 1.9526192626953127 0.18099999999999994 1.9321192626953128 0.15949999999999995 Q 1.9116192626953128 0.13799999999999993 1.8736192626953128 0.13799999999999993 Q 1.8311192626953128 0.13799999999999993 1.8063692626953127 0.16324999999999992 Q 1.7816192626953127 0.18849999999999995 1.7816192626953127 0.23299999999999993 L 1.7816192626953127 0.37099999999999994 L 1.7461192626953128 0.37099999999999994 L 1.7461192626953128 0.10799999999999993 L 1.7801192626953126 0.10799999999999993 L 1.7801192626953126 0.15649999999999994 Q 1.7946192626953128 0.13249999999999992 1.8203692626953127 0.11924999999999991 Q 1.8461192626953127 0.10599999999999993 1.8801192626953127 0.10599999999999993 Q 1.9296192626953128 0.10599999999999993 1.9588692626953126 0.13474999999999993 M 2.301365356445313 0.10799999999999993 L 2.169865356445313 0.40249999999999997 Q 2.153865356445313 0.43949999999999995 2.1328653564453126 0.45499999999999996 Q 2.1118653564453127 0.4704999999999999 2.0823653564453126 0.4704999999999999 Q 2.063365356445313 0.4704999999999999 2.0468653564453128 0.4644999999999999 Q 2.0303653564453126 0.45849999999999996 2.0183653564453126 0.44649999999999995 L 2.0348653564453127 0.41999999999999993 Q 2.0548653564453128 0.43999999999999995 2.082865356445313 0.43999999999999995 Q 2.1008653564453126 0.43999999999999995 2.1136153564453126 0.42999999999999994 Q 2.1263653564453127 0.41999999999999993 2.137365356445313 0.39599999999999996 L 2.1488653564453126 0.37049999999999994 L 2.031365356445313 0.10799999999999993 L 2.068365356445313 0.10799999999999993 L 2.1673653564453126 0.33149999999999996 L 2.266365356445313 0.10799999999999993 L 2.301365356445313 0.10799999999999993 M 2.735609008789063 0.10799999999999993 L 2.6361090087890626 0.37099999999999994 L 2.602609008789063 0.37099999999999994 L 2.519609008789063 0.15549999999999994 L 2.4366090087890626 0.37099999999999994 L 2.403109008789063 0.37099999999999994 L 2.3041090087890628 0.10799999999999993 L 2.3381090087890626 0.10799999999999993 L 2.4206090087890626 0.33149999999999996 L 2.505109008789063 0.10799999999999993 L 2.535609008789063 0.10799999999999993 L 2.619609008789063 0.33149999999999996 L 2.703109008789063 0.10799999999999993 L 2.735609008789063 0.10799999999999993 M 3.0026231689453127 0.13474999999999993 Q 3.031873168945313 0.16349999999999992 3.031873168945313 0.21849999999999994 L 3.031873168945313 0.37099999999999994 L 2.996373168945313 0.37099999999999994 L 2.996373168945313 0.22199999999999995 Q 2.996373168945313 0.18099999999999994 2.975873168945313 0.15949999999999995 Q 2.9553731689453127 0.13799999999999993 2.917373168945313 0.13799999999999993 Q 2.874873168945313 0.13799999999999993 2.850123168945313 0.16324999999999992 Q 2.8253731689453128 0.18849999999999995 2.8253731689453128 0.23299999999999993 L 2.8253731689453128 0.37099999999999994 L 2.789873168945313 0.37099999999999994 L 2.789873168945313 -5.551115123125783e-17 L 2.8253731689453128 -5.551115123125783e-17 L 2.8253731689453128 0.15399999999999994 Q 2.8398731689453127 0.13099999999999995 2.865373168945313 0.11849999999999994 Q 2.890873168945313 0.10599999999999993 2.923873168945313 0.10599999999999993 Q 2.973373168945313 0.10599999999999993 3.0026231689453127 0.13474999999999993 M 3.359131225585938 0.25049999999999994 L 3.139131225585938 0.25049999999999994 Q 3.142131225585938 0.2914999999999999 3.1706312255859377 0.3167499999999999 Q 3.199131225585938 0.3419999999999999 3.2426312255859377 0.3419999999999999 Q 3.267131225585938 0.3419999999999999 3.2876312255859377 0.33324999999999994 Q 3.308131225585938 0.32449999999999996 3.323131225585938 0.30749999999999994 L 3.343131225585938 0.33049999999999996 Q 3.325631225585938 0.3514999999999999 3.299381225585938 0.36249999999999993 Q 3.2731312255859377 0.37349999999999994 3.241631225585938 0.37349999999999994 Q 3.2011312255859377 0.37349999999999994 3.1698812255859377 0.35624999999999996 Q 3.1386312255859377 0.33899999999999997 3.121131225585938 0.30849999999999994 Q 3.103631225585938 0.2779999999999999 3.103631225585938 0.23949999999999994 Q 3.103631225585938 0.20099999999999993 3.120381225585938 0.17049999999999993 Q 3.137131225585938 0.13999999999999993 3.166381225585938 0.12299999999999994 Q 3.195631225585938 0.10599999999999993 3.232131225585938 0.10599999999999993 Q 3.268631225585938 0.10599999999999993 3.297631225585938 0.12299999999999994 Q 3.326631225585938 0.13999999999999993 3.343131225585938 0.17024999999999993 Q 3.3596312255859377 0.20049999999999993 3.3596312255859377 0.23949999999999994 L 3.359131225585938 0.25049999999999994 M 3.168381225585938 0.16074999999999995 Q 3.1426312255859377 0.18499999999999994 3.139131225585938 0.22399999999999995 L 3.325631225585938 0.22399999999999995 Q 3.3221312255859377 0.18499999999999994 3.2963812255859377 0.16074999999999995 Q 3.2706312255859378 0.13649999999999993 3.232131225585938 0.13649999999999993 Q 3.194131225585938 0.13649999999999993 3.168381225585938 0.16074999999999995 M 3.504133178710938 0.11949999999999994 Q 3.528883178710938 0.10599999999999993 3.565383178710938 0.10599999999999993 L 3.565383178710938 0.14049999999999993 L 3.556883178710938 0.13999999999999993 Q 3.515383178710938 0.13999999999999993 3.4918831787109377 0.16549999999999992 Q 3.468383178710938 0.19099999999999995 3.468383178710938 0.23699999999999993 L 3.468383178710938 0.37099999999999994 L 3.432883178710938 0.37099999999999994 L 3.432883178710938 0.10799999999999993 L 3.4668831787109378 0.10799999999999993 L 3.4668831787109378 0.15949999999999995 Q 3.479383178710938 0.13299999999999992 3.504133178710938 0.11949999999999994 M 3.856633422851563 0.25049999999999994 L 3.636633422851563 0.25049999999999994 Q 3.639633422851563 0.2914999999999999 3.6681334228515627 0.3167499999999999 Q 3.696633422851563 0.3419999999999999 3.740133422851563 0.3419999999999999 Q 3.764633422851563 0.3419999999999999 3.7851334228515627 0.33324999999999994 Q 3.805633422851563 0.32449999999999996 3.820633422851563 0.30749999999999994 L 3.840633422851563 0.33049999999999996 Q 3.823133422851563 0.3514999999999999 3.796883422851563 0.36249999999999993 Q 3.7706334228515628 0.37349999999999994 3.739133422851563 0.37349999999999994 Q 3.6986334228515627 0.37349999999999994 3.6673834228515627 0.35624999999999996 Q 3.6361334228515627 0.33899999999999997 3.618633422851563 0.30849999999999994 Q 3.601133422851563 0.2779999999999999 3.601133422851563 0.23949999999999994 Q 3.601133422851563 0.20099999999999993 3.617883422851563 0.17049999999999993 Q 3.634633422851563 0.13999999999999993 3.663883422851563 0.12299999999999994 Q 3.693133422851563 0.10599999999999993 3.729633422851563 0.10599999999999993 Q 3.766133422851563 0.10599999999999993 3.795133422851563 0.12299999999999994 Q 3.824133422851563 0.13999999999999993 3.840633422851563 0.17024999999999993 Q 3.857133422851563 0.20049999999999993 3.857133422851563 0.23949999999999994 L 3.856633422851563 0.25049999999999994 M 3.665883422851563 0.16074999999999995 Q 3.6401334228515627 0.18499999999999994 3.636633422851563 0.22399999999999995 L 3.823133422851563 0.22399999999999995 Q 3.8196334228515627 0.18499999999999994 3.7938834228515628 0.16074999999999995 Q 3.768133422851563 0.13649999999999993 3.729633422851563 0.13649999999999993 Q 3.691633422851563 0.13649999999999993 3.665883422851563 0.16074999999999995" fill="#225777" fill-rule="nonzero"></path></g><g transform="matrix(1,0,0,1,0,0)"><g clip-path="url(#SvgjsClipPath1001)"><g clip-path="url(#SvgjsClipPath100006f2adb1-bcc7-44bb-8be2-101b5fa50675)"><path d=" M 0.0002288688500866609 -0.1875 C 0.7668087344407781 -0.1875 1.3930592993782551 -0.8134890005373783 1.3930592993782551 -1.580330430528168 C 1.3930592993782551 -2.3471718605189578 0.7670702988408773 -2.973160861056336 0.00022886885008732705 -2.973160861056336 C -0.7666125611407028 -2.973160861056336 -1.392601561678081 -2.3471718605189578 -1.392601561678081 -1.5800034750280438 C -1.392601561678081 -0.8128350895371304 -0.7666125611407028 -0.18717304449987537 0.00022886885008732705 -0.18717304449987537 Z" fill="#173054" transform="matrix(1,0,0,1,0,0)" fill-rule="evenodd"></path></g><g clip-path="url(#SvgjsClipPath100006f2adb1-bcc7-44bb-8be2-101b5fa50675)"><path d=" M 0.0002288688500866609 -2.670661632341627 C 0.520416777090198 -2.670599592599355 0.968124697078915 -2.303097048413424 1.0695627497774929 -1.7928953381135933 C 1.1710008024760712 -1.2826936278137624 0.897918490778193 -0.7718839248504192 0.4173157040073878 -0.5728451721506302 C -0.06328708276341732 -0.3738064194508408 -0.617562471193205 -0.5419709085225946 -0.9065506511536008 -0.9744998619711813 C -1.195538831113996 -1.4070288154197679 -1.138756596110586 -1.9834629221412325 -0.7709283737423399 -2.3512914998205203 C -0.5666446062730919 -2.5561672943047054 -0.28909058022860545 -2.671114624348059 0.0002288688500866609 -2.670661632341627 Z M 0.7297973718267428 -2.310225889004948 C 0.381652392424745 -2.657976898368196 -0.16363808497822907 -2.7114296583513093 -0.572684535633252 -2.4379032566959973 C -0.9817309862882746 -2.1643768550406843 -1.1406480881811132 -1.6400255824932093 -0.95227423796439 -1.1854367751623396 C -0.7639003877476671 -0.7308479678314703 -0.28068199231878554 -0.47258669583097523 0.2019421723340209 -0.5685533926020763 C 0.6845663369868267 -0.6645200893731755 1.0322256918857446 -1.0879960334921346 1.0323619916414768 -1.5800688661280682 C 1.0327050109357025 -1.8540232997415054 0.923810893837635 -2.116809491986388 0.7297973718267543 -2.3102258890049368 Z" fill="#3a868f" transform="matrix(1,0,0,1,0,0)" fill-rule="nonzero"></path></g><g clip-path="url(#SvgjsClipPath100006f2adb1-bcc7-44bb-8be2-101b5fa50675)"><path d=" M -0.4996206997394588 -2.2651060299878383 L -0.40356117380303247 -2.2651060299878383 L -0.30750164786660616 -2.2651060299878383 L -0.30750164786660616 -1.9306959444610283 L -0.40356117380303247 -2.0538927769077455 L -0.4996206997394588 -1.9306959444610283 L -0.4996206997394588 -2.2651060299878383 Z" fill="#225777" transform="matrix(1,0,0,1,0,0)" fill-rule="evenodd"></path></g><g clip-path="url(#SvgjsClipPath100006f2adb1-bcc7-44bb-8be2-101b5fa50675)"><path d=" M -0.49955530863943376 -1.2797929348142028 L 0.17266519961547555 -1.2797929348142028 L 0.17266519961547555 -1.2225103311924808 L -0.49955530863943376 -1.2225103311924808 Z M -0.07601715377882612 -1.9382159209638796 L 0.4994245264393844 -1.9382159209638796 L 0.4994245264393844 -1.880933317342158 L -0.07601715377882612 -1.880933317342158 Z M -0.49955530863943376 -1.7185672159805883 L 0.4996206997394588 -1.7185672159805883 L 0.4996206997394588 -1.6607614835586677 L -0.49955530863943376 -1.6607614835586677 Z M -0.49955530863943376 -1.4993108575974454 L 0.4996206997394588 -1.4993108575974454 L 0.4996206997394588 -1.4415051251755253 L -0.49955530863943376 -1.4415051251755253 Z" fill="#3a868f" transform="matrix(1,0,0,1,0,0)" fill-rule="nonzero"></path></g></g></g></g><defs><clipPath id="SvgjsClipPath1001"><path d=" M -1.3928631260781805 -2.973226252156361 h 2.785726252156361 v 2.785726252156361 h -2.785726252156361 Z"></path></clipPath><clipPath id="SvgjsClipPath100006f2adb1-bcc7-44bb-8be2-101b5fa50675"><path d=" M -1.3928631260781805 -2.973226252156361 L 1.3928631260781805 -2.973226252156361 L 1.3928631260781805 -0.1875 L -1.3928631260781805 -0.1875 Z"></path></clipPath></defs></svg>